# xmcd
#
# Track frame offsets:
#	150
#	14052
#	29542
#	48672
#	65460
#	83867
#	100530
#	116745
#	129447
#	146397
#	158565
#	173877
#	187697
#
# Disc length: 2684 seconds
#
# Revision: 0
# Processed by: cddbd v1.5.1PL0 Copyright (c) Steve Scherf et al.
# Submitted via: dBpowerAMP V4.0
#
DISCID=a60a7a0d
DTITLE=EURIDICE - HATE ME
DYEAR=1900
DGENRE=Blues
TTITLE0=HATE ME
TTITLE1=A JEALOUS SKY
TTITLE2=IN THE SAME CHAIRS
TTITLE3=WILL BE TOGETHER
TTITLE4=I AM FREE
TTITLE5=FORGET ME
TTITLE6=ONLY A MOMENT
TTITLE7=I LIVE FOR ME NOW
TTITLE8=WHEN YOU ASK FOR ME
TTITLE9=PERFECT CONTACT
TTITLE10=I KNEW YOUR WORLD EARLY
TTITLE11=I AM A MAN TOO
TTITLE12=FENETRE SUR COUR
EXTD=
EXTT0=
EXTT1=
EXTT2=
EXTT3=
EXTT4=
EXTT5=
EXTT6=
EXTT7=
EXTT8=
EXTT9=
EXTT10=
EXTT11=
EXTT12=
PLAYORDER=
